HIERARCHY
ROOT hip
{
  OFFSET 0 0 0
  CHANNELS 6 Xposition Yposition Zposition Zrotation Yrotation Xrotation
  JOINT abdomen
  {
    OFFSET 0 20.6881 -0.73152
    CHANNELS 3 Zrotation Xrotation Yrotation
    JOINT chest
    {
      OFFSET 0 11.7043 -0.48768
      CHANNELS 3 Zrotation Xrotation Yrotation
      JOINT neck
      {
        OFFSET 0 22.1894 -2.19456
        CHANNELS 3 Zrotation Xrotation Yrotation
        JOINT head
        {
          OFFSET -0.24384 7.07133 1.2192
          CHANNELS 3 Zrotation Xrotation Yrotation
          JOINT leftEye
          {
            OFFSET 4.14528 8.04674 8.04672
            CHANNELS 3 Zrotation Xrotation Yrotation
            End Site
            {
              OFFSET 1 0 0
            }
          }
          JOINT rightEye
          {
            OFFSET -3.6576 8.04674 8.04672
            CHANNELS 3 Zrotation Xrotation Yrotation
            End Site
            {
              OFFSET 1 0 0
            }
          }
        }
      }
      JOINT rCollar
      {
        OFFSET -2.68224 19.2634 -4.8768
        CHANNELS 3 Zrotation Xrotation Yrotation
        JOINT rShldr
        {
          OFFSET -8.77824 -1.95073 1.46304
          CHANNELS 3 Zrotation Xrotation Yrotation
          JOINT rForeArm
          {
            OFFSET -28.1742 -1.7115 0.48768
            CHANNELS 3 Zrotation Xrotation Yrotation
            JOINT rHand
            {
              OFFSET -22.5879 0.773209 7.07136
              CHANNELS 3 Zrotation Xrotation Yrotation
              JOINT rThumb1
              {
                OFFSET -1.2192 -0.487915 3.41376
                CHANNELS 3 Zrotation Xrotation Yrotation
                JOINT rThumb2
                {
                  OFFSET -3.37035 -0.52449 3.41376
                  CHANNELS 3 Zrotation Xrotation Yrotation
                  End Site
                  {
                    OFFSET -1.78271 -1.18214 1.43049
                  }
                }
              }
              JOINT rIndex1
              {
                OFFSET -7.75947 0.938293 5.60832
                CHANNELS 3 Zrotation Xrotation Yrotation
                JOINT rIndex2
                {
                  OFFSET -2.54057 -0.884171 1.56538
                  CHANNELS 3 Zrotation Xrotation Yrotation
                  End Site
                  {
                    OFFSET -1.62519 -0.234802 1.16502
                  }
                }
              }
              JOINT rMid1
              {
                OFFSET -8.24714 1.18213 3.41376
                CHANNELS 3 Zrotation Xrotation Yrotation
                JOINT rMid2
                {
                  OFFSET -3.10165 -0.590103 1.0647
                  CHANNELS 3 Zrotation Xrotation Yrotation
                  End Site
                  {
                    OFFSET -2.48547 -0.328903 0.83742
                  }
                }
              }
              JOINT rRing1
              {
                OFFSET -8.82822 0.546677 1.51678
                CHANNELS 3 Zrotation Xrotation Yrotation
                JOINT rRing2
                {
                  OFFSET -2.60934 -0.819778 -0.0198488
                  CHANNELS 3 Zrotation Xrotation Yrotation
                  End Site
                  {
                    OFFSET -2.33842 -0.294052 0.168128
                  }
                }
              }
              JOINT rPinky1
              {
                OFFSET -8.27202 -0.0477905 -0.4584
                CHANNELS 3 Zrotation Xrotation Yrotation
                JOINT rPinky2
                {
                  OFFSET -1.82734 -0.647385 -0.700984
                  CHANNELS 3 Zrotation Xrotation Yrotation
                  End Site
                  {
                    OFFSET -1.69225 -0.51767 -0.607171
                  }
                }
              }
            }
          }
        }
      }
      JOINT lCollar
      {
        OFFSET 2.68224 19.2634 -4.8768
        CHANNELS 3 Zrotation Xrotation Yrotation
        JOINT lShldr
        {
          OFFSET 8.77824 -1.95073 1.46304
          CHANNELS 3 Zrotation Xrotation Yrotation
          JOINT lForeArm
          {
            OFFSET 28.1742 -1.7115 0.48768
            CHANNELS 3 Zrotation Xrotation Yrotation
            JOINT lHand
            {
              OFFSET 22.5879 0.773209 7.07136
              CHANNELS 3 Zrotation Xrotation Yrotation
              JOINT lThumb1
              {
                OFFSET 1.2192 -0.487915 3.41376
                CHANNELS 3 Zrotation Xrotation Yrotation
                JOINT lThumb2
                {
                  OFFSET 3.37035 -0.52449 3.41376
                  CHANNELS 3 Zrotation Xrotation Yrotation
                  End Site
                  {
                    OFFSET 1.78271 -1.18214 1.43049
                  }
                }
              }
              JOINT lIndex1
              {
                OFFSET 7.75947 0.938293 5.60832
                CHANNELS 3 Zrotation Xrotation Yrotation
                JOINT lIndex2
                {
                  OFFSET 2.54057 -0.884171 1.56538
                  CHANNELS 3 Zrotation Xrotation Yrotation
                  End Site
                  {
                    OFFSET 1.62519 -0.234802 1.16502
                  }
                }
              }
              JOINT lMid1
              {
                OFFSET 8.24714 1.18213 3.41376
                CHANNELS 3 Zrotation Xrotation Yrotation
                JOINT lMid2
                {
                  OFFSET 3.10165 -0.590103 1.0647
                  CHANNELS 3 Zrotation Xrotation Yrotation
                  End Site
                  {
                    OFFSET 2.48547 -0.328903 0.83742
                  }
                }
              }
              JOINT lRing1
              {
                OFFSET 8.82822 0.546677 1.51678
                CHANNELS 3 Zrotation Xrotation Yrotation
                JOINT lRing2
                {
                  OFFSET 2.60934 -0.819778 -0.0198488
                  CHANNELS 3 Zrotation Xrotation Yrotation
                  End Site
                  {
                    OFFSET 2.33842 -0.294052 0.168128
                  }
                }
              }
              JOINT lPinky1
              {
                OFFSET 8.27202 -0.0477905 -0.4584
                CHANNELS 3 Zrotation Xrotation Yrotation
                JOINT lPinky2
                {
                  OFFSET 1.82734 -0.647385 -0.700984
                  CHANNELS 3 Zrotation Xrotation Yrotation
                  End Site
                  {
                    OFFSET 1.69225 -0.51767 -0.607171
                  }
                }
              }
            }
          }
        }
      }
    }
  }
  JOINT rButtock
  {
    OFFSET -8.77824 4.35084 1.2192
    CHANNELS 3 Zrotation Xrotation Yrotation
    JOINT rThigh
    {
      OFFSET 0 -1.70687 -2.19456
      CHANNELS 3 Zrotation Xrotation Yrotation
      JOINT rShin
      {
        OFFSET 0 -36.8199 0.73152
        CHANNELS 3 Zrotation Xrotation Yrotation
        JOINT rFoot
        {
          OFFSET 0.73152 -45.1104 -5.12064
          CHANNELS 3 Zrotation Xrotation Yrotation
          End Site
          {
            OFFSET -1.1221 -3.69964 12.103
          }
        }
      }
    }
  }
  JOINT lButtock
  {
    OFFSET 8.77824 4.35084 1.2192
    CHANNELS 3 Zrotation Xrotation Yrotation
    JOINT lThigh
    {
      OFFSET 0 -1.70687 -2.19456
      CHANNELS 3 Zrotation Xrotation Yrotation
      JOINT lShin
      {
        OFFSET 0 -36.8199 0.73152
        CHANNELS 3 Zrotation Xrotation Yrotation
        JOINT lFoot
        {
          OFFSET -0.73152 -45.1104 -5.12064
          CHANNELS 3 Zrotation Xrotation Yrotation
          End Site
          {
            OFFSET 1.1221 -3.69964 12.103
          }
        }
      }
    }
  }
}
MOTION
Frames:	5
Frame Time:	0.03333
0.06286000134423375 54.27370071411133 -0.6684999912977219 7.406007766723633 30.621103286743164 10.495494842529297 -9.739779472351074 9.676168441772461 0.7573484182357788 4.84462308883667 -8.564351081848145 0.6883182525634766 -7.722397804260254 18.27479362487793 -12.509900093078613 9.771655082702637 -32.09299087524414 -22.393396377563477 -0.0 0.0 -0.0 -0.0 0.0 -0.0 -0.0 0.0 -0.0 28.760404586791992 -20.698701858520508 61.908687591552734 -9.58900260925293 -3.8950388431549072 17.03329086303711 -0.787198007106781 24.35201644897461 3.647155284881592 -0.0 0.0 -0.0 -0.0 0.0 -0.0 -0.0 0.0 -0.0 7.73087739944458 5.47489595413208 0.41732463240623474 -0.0 0.0 -0.0 2.9054994583129883 0.9650753736495972 0.10300876200199127 -0.0 0.0 -0.0 10.278595924377441 0.7317469120025635 0.026285577565431595 -0.0 0.0 -0.0 2.221662759780884 -0.7335850596427917 -0.20831839740276337 -0.0 0.0 -0.0 -111.9219970703125 50.81848907470703 49.02418518066406 27.900598526000977 -40.909297943115234 -85.56690216064453 18.9683895111084 -72.1281967163086 25.839885711669922 -0.0 0.0 -0.0 -0.0 0.0 -0.0 -0.0 0.0 -0.0 -7.73087739944458 5.47489595413208 -0.41732463240623474 -0.0 0.0 -0.0 -2.9054994583129883 0.9650753736495972 -0.10300876200199127 -0.0 0.0 -0.0 -10.278595924377441 0.7317469120025635 -0.026285577565431595 -0.0 0.0 -0.0 -2.221662759780884 -0.7335850596427917 0.20831839740276337 -0.0 0.0 -0.0 -62.34739685058594 -62.756996154785156 -54.743003845214844 -1.538044810295105 65.49159240722656 1.872260570526123 0.906408429145813 7.34487247467041 3.1656501293182373 -0.0 0.0 -0.0 17.03079605102539 -4.387092113494873 -1.0428762435913086 0.2125999629497528 52.64860153198242 -3.306380271911621 4.729094505310059 -12.800381660461426 27.853809356689453
0.145650003105402 54.12750244140625 -1.3962999917566776 6.877199649810791 30.393394470214844 9.52939224243164 -9.025725364685059 10.347658157348633 1.0551000833511353 4.836180686950684 -8.521211624145508 0.7970830202102661 -7.6739888191223145 18.405189514160156 -12.462298393249512 9.74353313446045 -32.25409698486328 -22.310195922851562 -0.0 0.0 -0.0 -0.0 0.0 -0.0 -0.0 0.0 -0.0 28.602497100830078 -20.67949867248535 61.91789627075195 -9.714900016784668 -3.9698333740234375 17.267995834350586 -0.7036798596382141 23.345205307006836 3.4742934703826904 -0.0 0.0 -0.0 -0.0 0.0 -0.0 -0.0 0.0 -0.0 7.73087739944458 5.47489595413208 0.41732463240623474 -0.0 0.0 -0.0 2.9054994583129883 0.9650753736495972 0.10300876200199127 -0.0 0.0 -0.0 10.278595924377441 0.7317469120025635 0.026285577565431595 -0.0 0.0 -0.0 2.221662759780884 -0.7335850596427917 -0.20831839740276337 -0.0 0.0 -0.0 -111.95899200439453 51.0331916809082 49.156490325927734 27.87509536743164 -41.02779769897461 -85.78370666503906 19.08325958251953 -72.20069885253906 25.960535049438477 -0.0 0.0 -0.0 -0.0 0.0 -0.0 -0.0 0.0 -0.0 -7.73087739944458 5.47489595413208 -0.41732463240623474 -0.0 0.0 -0.0 -2.9054994583129883 0.9650753736495972 -0.10300876200199127 -0.0 0.0 -0.0 -10.278595924377441 0.7317469120025635 -0.026285577565431595 -0.0 0.0 -0.0 -2.221662759780884 -0.7335850596427917 0.20831839740276337 -0.0 0.0 -0.0 -59.82720947265625 -62.89469909667969 -51.81660461425781 -1.4591236114501953 64.57740020751953 1.7578376531600952 1.0276832580566406 8.01806354522705 2.98553204536438 -0.0 0.0 -0.0 17.365997314453125 -5.896585941314697 -1.5970664024353027 0.3284710943698883 56.38710403442383 -3.4655261039733887 4.5428876876831055 -13.211180686950684 26.40220832824707
0.25044999783858657 54.03890013694763 -2.204800024628639 6.251321315765381 30.086496353149414 8.367095947265625 -8.311714172363281 11.0986909866333 1.3842724561691284 4.856591701507568 -8.492774963378906 0.9158559441566467 -7.586318016052246 18.501800537109375 -12.401698112487793 9.710958480834961 -32.29789733886719 -22.20110511779785 -0.0 0.0 -0.0 -0.0 0.0 -0.0 -0.0 0.0 -0.0 28.429800033569336 -20.522899627685547 61.95689392089844 -9.921117782592773 -4.092776775360107 17.654708862304688 -0.6321614384651184 21.98858642578125 3.253077745437622 -0.0 0.0 -0.0 -0.0 0.0 -0.0 -0.0 0.0 -0.0 7.73087739944458 5.47489595413208 0.41732463240623474 -0.0 0.0 -0.0 2.9054994583129883 0.9650753736495972 0.10300876200199127 -0.0 0.0 -0.0 10.278595924377441 0.7317469120025635 0.026285577565431595 -0.0 0.0 -0.0 2.221662759780884 -0.7335850596427917 -0.20831839740276337 -0.0 0.0 -0.0 -112.02198791503906 51.37139892578125 49.377288818359375 27.846603393554688 -41.157100677490234 -86.02079772949219 19.418237686157227 -72.4082260131836 26.312143325805664 -0.0 0.0 -0.0 -0.0 0.0 -0.0 -0.0 0.0 -0.0 -7.73087739944458 5.47489595413208 -0.41732463240623474 -0.0 0.0 -0.0 -2.9054994583129883 0.9650753736495972 -0.10300876200199127 -0.0 0.0 -0.0 -10.278595924377441 0.7317469120025635 -0.026285577565431595 -0.0 0.0 -0.0 -2.221662759780884 -0.7335850596427917 0.20831839740276337 -0.0 0.0 -0.0 -56.68368911743164 -62.95259475708008 -48.17558670043945 -1.3637573719024658 63.420284271240234 1.634494662284851 1.1481404304504395 8.77525520324707 2.8772222995758057 -0.0 0.0 -0.0 17.7001895904541 -7.176929950714111 -2.0149130821228027 0.4579008221626282 59.7733039855957 -3.619224786758423 4.42068338394165 -13.835402488708496 24.88290023803711
0.3897899994626641 54.03900146484375 -3.13120000064373 5.526577949523926 29.779394149780273 7.022708415985107 -7.549448490142822 11.953690528869629 1.581729769706726 4.8942437171936035 -8.444707870483398 0.9959551692008972 -7.458175182342529 18.632888793945312 -12.338400840759277 9.738814353942871 -32.375 -22.068897247314453 -0.0 0.0 -0.0 -0.0 0.0 -0.0 -0.0 0.0 -0.0 28.150604248046875 -20.1763973236084 61.93849563598633 -10.238678932189941 -4.287984848022461 18.249500274658203 -0.5953506231307983 21.02006721496582 3.0998685359954834 -0.0 0.0 -0.0 -0.0 0.0 -0.0 -0.0 0.0 -0.0 7.73087739944458 5.47489595413208 0.41732463240623474 -0.0 0.0 -0.0 2.9054994583129883 0.9650753736495972 0.10300876200199127 -0.0 0.0 -0.0 10.278595924377441 0.7317469120025635 0.026285577565431595 -0.0 0.0 -0.0 2.221662759780884 -0.7335850596427917 -0.20831839740276337 -0.0 0.0 -0.0 -112.14099884033203 51.94179916381836 49.56669998168945 27.83249855041504 -41.218597412109375 -86.13508605957031 19.337026596069336 -72.37615203857422 26.235273361206055 -0.0 0.0 -0.0 -0.0 0.0 -0.0 -0.0 0.0 -0.0 -7.73087739944458 5.47489595413208 -0.41732463240623474 -0.0 0.0 -0.0 -2.9054994583129883 0.9650753736495972 -0.10300876200199127 -0.0 0.0 -0.0 -10.278595924377441 0.7317469120025635 -0.026285577565431595 -0.0 0.0 -0.0 -2.221662759780884 -0.7335850596427917 0.20831839740276337 -0.0 0.0 -0.0 -53.000789642333984 -62.72719192504883 -43.98598098754883 -1.24764883518219 61.91700744628906 1.4997260570526123 1.2560961246490479 9.728899955749512 2.7069144248962402 -0.0 0.0 -0.0 17.97410011291504 -8.284308433532715 -2.469350814819336 0.6089739799499512 62.700408935546875 -3.765004873275757 4.292949676513672 -14.369815826416016 23.547889709472656
0.5817399942316115 54.155999422073364 -4.219899978488684 4.818403720855713 29.50259780883789 5.62030029296875 -6.733911991119385 12.912999153137207 1.6461637020111084 4.948934555053711 -8.376992225646973 1.036514163017273 -7.289700031280518 18.79859733581543 -12.272414207458496 9.827449798583984 -32.48519515991211 -21.913602828979492 -0.0 0.0 -0.0 -0.0 0.0 -0.0 -0.0 0.0 -0.0 27.766395568847656 -19.640907287597656 61.86939239501953 -10.663230895996094 -4.553181171417236 19.053001403808594 -0.5415186882019043 20.441404342651367 3.002741813659668 -0.0 0.0 -0.0 -0.0 0.0 -0.0 -0.0 0.0 -0.0 7.73087739944458 5.47489595413208 0.41732463240623474 -0.0 0.0 -0.0 2.9054994583129883 0.9650753736495972 0.10300876200199127 -0.0 0.0 -0.0 10.278595924377441 0.7317469120025635 0.026285577565431595 -0.0 0.0 -0.0 2.221662759780884 -0.7335850596427917 -0.20831839740276337 -0.0 0.0 -0.0 -112.31900024414062 52.74579620361328 49.73320770263672 27.833702087402344 -41.21330642700195 -86.12489318847656 18.951927185058594 -72.09212493896484 25.810832977294922 -0.0 0.0 -0.0 -0.0 0.0 -0.0 -0.0 0.0 -0.0 -7.73087739944458 5.47489595413208 -0.41732463240623474 -0.0 0.0 -0.0 -2.9054994583129883 0.9650753736495972 -0.10300876200199127 -0.0 0.0 -0.0 -10.278595924377441 0.7317469120025635 -0.026285577565431595 -0.0 0.0 -0.0 -2.221662759780884 -0.7335850596427917 0.20831839740276337 -0.0 0.0 -0.0 -48.918392181396484 -62.162601470947266 -39.37488555908203 -1.1180329322814941 60.067317962646484 1.3600093126296997 1.356797456741333 10.87907886505127 2.473801612854004 -0.0 0.0 -0.0 18.18979263305664 -9.218579292297363 -2.9602744579315186 0.7688955664634705 65.16828918457031 -3.8883397579193115 4.170132160186768 -14.81299114227295 22.398595809936523
